<svg width="24" height="25" viewBox="0 0 24 25" fill="none" xmlns="http://www.w3.org/2000/svg">
    <path d="M4.11307 10.7461L11.9994 6.08771L19.8858 10.7461C19.9631 10.792 20.0484 10.8137 20.1324 10.8137C20.2987 10.8137 20.4607 10.7284 20.5515 10.5749C20.6881 10.3439 20.6114 10.0459 20.38 9.90924L12.2467 5.10475C12.0942 5.01489 11.905 5.01489 11.7524 5.10475L3.61883 9.90924C3.38776 10.0459 3.31105 10.3439 3.44737 10.5749C3.58399 10.806 3.882 10.8827 4.11307 10.7461Z" fill="#0898A0"/>
    <path d="M20.1331 19.1765H3.86586C3.5975 19.1765 3.37988 19.3941 3.37988 19.6625C3.37988 19.9309 3.5975 20.1485 3.86586 20.1485H20.1331C20.4014 20.1485 20.6191 19.9309 20.6191 19.6625C20.6191 19.3938 20.4014 19.1765 20.1331 19.1765Z" fill="#0898A0"/>
    <path d="M8.26718 11.4945C8.53554 11.4945 8.75317 11.2769 8.75317 11.0086C8.75317 10.7402 8.53554 10.5226 8.26718 10.5226H6.6393C6.37094 10.5226 6.15332 10.7402 6.15332 11.0086C6.15332 11.2769 6.37094 11.4945 6.6393 11.4945H6.96726V17.3538H6.6393C6.37094 17.3538 6.15332 17.5714 6.15332 17.8398C6.15332 18.1082 6.37094 18.3258 6.6393 18.3258H8.26718C8.53554 18.3258 8.75317 18.1082 8.75317 17.8398C8.75317 17.5714 8.53554 17.3538 8.26718 17.3538H7.93922V11.4945H8.26718Z" fill="#0898A0"/>
    <path d="M12.8131 11.4883C13.0814 11.4883 13.2991 11.2707 13.2991 11.0023C13.2991 10.734 13.0814 10.5164 12.8131 10.5164H11.1852C10.9168 10.5164 10.6992 10.734 10.6992 11.0023C10.6992 11.2707 10.9168 11.4883 11.1852 11.4883H11.5132V17.3476H11.1852C10.9168 17.3476 10.6992 17.5652 10.6992 17.8336C10.6992 18.1019 10.9168 18.3196 11.1852 18.3196H12.8131C13.0814 18.3196 13.2991 18.1019 13.2991 17.8336C13.2991 17.5652 13.0814 17.3476 12.8131 17.3476H12.4851V11.4883H12.8131Z" fill="#0898A0"/>
    <path d="M17.36 11.4816C17.6283 11.4816 17.8459 11.264 17.8459 10.9956C17.8459 10.7273 17.6283 10.5096 17.36 10.5096H15.7321C15.4637 10.5096 15.2461 10.7273 15.2461 10.9956C15.2461 11.264 15.4637 11.4816 15.7321 11.4816H16.06V17.3409H15.7321C15.4637 17.3409 15.2461 17.5585 15.2461 17.8269C15.2461 18.0952 15.4637 18.3128 15.7321 18.3128H17.36C17.6283 18.3128 17.8459 18.0952 17.8459 17.8269C17.8459 17.5585 17.6283 17.3409 17.36 17.3409H17.032V11.4816H17.36Z" fill="#0898A0"/>
</svg>
