<svg width="24" height="25" viewBox="0 0 24 25" fill="none" xmlns="http://www.w3.org/2000/svg">
    <path d="M5.84375 19.0745H18.2031C19.7266 19.0745 20.5 18.2933 20.5 16.7933V8.44171C20.5 6.9339 19.7266 6.15265 18.2031 6.15265H5.84375C4.3125 6.15265 3.53906 6.92609 3.53906 8.44171V16.7933C3.53906 18.3011 4.3125 19.0745 5.84375 19.0745ZM4.50781 8.48859C4.50781 7.59015 4.98438 7.1214 5.85938 7.1214H18.1797C19.0391 7.1214 19.5391 7.59015 19.5391 8.48859V9.11359H4.50781V8.48859ZM5.85938 18.1058C4.98438 18.1058 4.50781 17.6448 4.50781 16.7386V10.5636H19.5391V16.7386C19.5391 17.6448 19.0391 18.1058 18.1797 18.1058H5.85938ZM6.80469 15.1448H8.71875C9.17969 15.1448 9.49219 14.8323 9.49219 14.3948V13.4417C9.49219 13.0042 9.17969 12.6995 8.71875 12.6995H6.80469C6.35156 12.6995 6.03906 13.0042 6.03906 13.4417V14.3948C6.03906 14.8323 6.35156 15.1448 6.80469 15.1448Z" fill="#0898A0"/>
</svg>
