<svg width="24" height="25" viewBox="0 0 24 25" fill="none" xmlns="http://www.w3.org/2000/svg">
    <path d="M3.12513 11.0868L11.9973 5.84608L20.8694 11.0868C20.9564 11.1384 21.0523 11.1628 21.1469 11.1628C21.3339 11.1628 21.5162 11.0668 21.6183 10.8942C21.772 10.6343 21.6857 10.299 21.4254 10.1453L12.2754 4.74025C12.1039 4.63916 11.891 4.63916 11.7194 4.74025L2.56911 10.1453C2.30916 10.299 2.22285 10.6343 2.37621 10.8942C2.52991 11.1542 2.86517 11.2405 3.12513 11.0868Z" fill="#0898A0"/>
    <path d="M21.1472 20.5709H2.84653C2.54463 20.5709 2.2998 20.8157 2.2998 21.1177C2.2998 21.4196 2.54463 21.6644 2.84653 21.6644H21.1472C21.4491 21.6644 21.6939 21.4196 21.6939 21.1177C21.6939 20.8154 21.4491 20.5709 21.1472 20.5709Z" fill="#0898A0"/>
    <path d="M7.79802 11.9288C8.09992 11.9288 8.34475 11.684 8.34475 11.3821C8.34475 11.0802 8.09992 10.8353 7.79802 10.8353H5.96665C5.66475 10.8353 5.41992 11.0802 5.41992 11.3821C5.41992 11.684 5.66475 11.9288 5.96665 11.9288H6.33561V18.5205H5.96665C5.66475 18.5205 5.41992 18.7653 5.41992 19.0672C5.41992 19.3691 5.66475 19.6139 5.96665 19.6139H7.79802C8.09992 19.6139 8.34475 19.3691 8.34475 19.0672C8.34475 18.7653 8.09992 18.5205 7.79802 18.5205H7.42906V11.9288H7.79802Z" fill="#0898A0"/>
    <path d="M18.0275 11.9141C18.3294 11.9141 18.5742 11.6693 18.5742 11.3674C18.5742 11.0655 18.3294 10.8207 18.0275 10.8207H16.1961C15.8942 10.8207 15.6494 11.0655 15.6494 11.3674C15.6494 11.6693 15.8942 11.9141 16.1961 11.9141H16.5651V18.5058H16.1961C15.8942 18.5058 15.6494 18.7507 15.6494 19.0526C15.6494 19.3545 15.8942 19.5993 16.1961 19.5993H18.0275C18.3294 19.5993 18.5742 19.3545 18.5742 19.0526C18.5742 18.7507 18.3294 18.5058 18.0275 18.5058H17.6586V11.9141H18.0275Z" fill="#0898A0"/>
    <path d="M14.2734 14.5153C14.3946 14.5153 14.4949 14.561 14.5742 14.6524C14.6582 14.7438 14.7002 14.861 14.7002 15.0038C14.7002 15.1467 14.6582 15.2667 14.5742 15.3638C14.4949 15.4553 14.3946 15.501 14.2734 15.501H13.9585V17.541C13.9585 17.6896 13.9165 17.8153 13.8325 17.9181C13.7532 18.0153 13.6529 18.0638 13.5316 18.0638C13.4663 18.0638 13.401 18.0524 13.3357 18.0296C13.275 18.001 13.2307 17.9638 13.2027 17.9181L11.5933 15.4153H10.6347V17.5838C10.6347 17.721 10.5974 17.8353 10.5227 17.9267C10.4527 18.0181 10.3594 18.0638 10.2428 18.0638C10.1309 18.0638 10.0399 18.0181 9.96992 17.9267C9.89994 17.8353 9.86495 17.721 9.86495 17.5838V15.501H9.62704C9.50575 15.501 9.40545 15.4553 9.32615 15.3638C9.24218 15.2667 9.2002 15.1467 9.2002 15.0038C9.2002 14.861 9.24218 14.7438 9.32615 14.6524C9.40545 14.561 9.50575 14.5153 9.62704 14.5153H9.86495V12.5867C9.86495 12.4381 9.90461 12.3153 9.98391 12.2181C10.0679 12.1153 10.1705 12.0638 10.2918 12.0638C10.3618 12.0638 10.4294 12.081 10.4947 12.1153C10.5647 12.1496 10.616 12.1953 10.6487 12.2524L12.1531 14.601H13.1957V12.5438C13.1957 12.4067 13.2307 12.2924 13.3007 12.201C13.3753 12.1096 13.4686 12.0638 13.5806 12.0638C13.6926 12.0638 13.7835 12.1096 13.8535 12.201C13.9235 12.2924 13.9585 12.4067 13.9585 12.5438V14.5153H14.2734ZM11.0685 14.601L10.6347 13.9238V14.601H11.0685ZM12.6709 15.4153L13.1957 16.2296V15.4153H12.6709Z" fill="#0898A0"/>
</svg>
