<svg width="27" height="30" viewBox="0 0 27 30" fill="none" xmlns="http://www.w3.org/2000/svg">
    <path d="M21.733 20.7432C20.6415 20.7432 19.6648 21.1741 18.918 21.8491L8.67789 15.8888C8.7497 15.5585 8.80715 15.2282 8.80715 14.8835C8.80715 14.5388 8.7497 14.2085 8.67789 13.8782L18.8031 7.97537C19.5787 8.69347 20.5984 9.13869 21.733 9.13869C24.1171 9.13869 26.0416 7.21418 26.0416 4.83009C26.0416 2.44599 24.1171 0.521484 21.733 0.521484C19.3489 0.521484 17.4244 2.44599 17.4244 4.83009C17.4244 5.17478 17.4818 5.5051 17.5536 5.83543L7.4284 11.7382C6.65285 11.0201 5.63315 10.5749 4.49855 10.5749C2.11445 10.5749 0.189941 12.4994 0.189941 14.8835C0.189941 17.2676 2.11445 19.1921 4.49855 19.1921C5.63315 19.1921 6.65285 18.7469 7.4284 18.0288L17.6542 23.989C17.5823 24.2906 17.5393 24.6066 17.5393 24.9369C17.5393 27.2492 19.4207 29.1163 21.733 29.1163C24.0453 29.1163 25.9267 27.2492 25.9267 24.9369C25.9267 22.6246 24.0453 20.7432 21.733 20.7432ZM21.733 3.39389C22.5229 3.39389 23.1692 4.04018 23.1692 4.83009C23.1692 5.62 22.5229 6.26629 21.733 6.26629C20.9431 6.26629 20.2968 5.62 20.2968 4.83009C20.2968 4.04018 20.9431 3.39389 21.733 3.39389ZM4.49855 16.3197C3.70864 16.3197 3.06235 15.6734 3.06235 14.8835C3.06235 14.0936 3.70864 13.4473 4.49855 13.4473C5.28846 13.4473 5.93475 14.0936 5.93475 14.8835C5.93475 15.6734 5.28846 16.3197 4.49855 16.3197ZM21.733 26.3731C20.9431 26.3731 20.2968 25.7268 20.2968 24.9369C20.2968 24.147 20.9431 23.5007 21.733 23.5007C22.5229 23.5007 23.1692 24.147 23.1692 24.9369C23.1692 25.7268 22.5229 26.3731 21.733 26.3731Z" fill="#222222"/>
</svg>
