<svg width="24" height="25" viewBox="0 0 24 25" fill="none" xmlns="http://www.w3.org/2000/svg">
    <path fill-rule="evenodd" clip-rule="evenodd" d="M14.9699 19.2557H5.84375C4.3125 19.2557 3.53906 18.4823 3.53906 16.9745V8.62292C3.53906 7.1073 4.3125 6.33386 5.84375 6.33386H18.2031C19.7266 6.33386 20.5 7.11511 20.5 8.62292V12.4325C20.1974 12.2821 19.8755 12.1648 19.5391 12.0853V10.7448H4.50781V16.9198C4.50781 17.826 4.98438 18.287 5.85938 18.287H14.3842C14.5387 18.6354 14.7362 18.9606 14.9699 19.2557ZM5.85938 7.30261C4.98438 7.30261 4.50781 7.77136 4.50781 8.6698V9.2948H19.5391V8.6698C19.5391 7.77136 19.0391 7.30261 18.1797 7.30261H5.85938ZM8.71875 15.326H6.80469C6.35156 15.326 6.03906 15.0135 6.03906 14.576V13.6229C6.03906 13.1854 6.35156 12.8807 6.80469 12.8807H8.71875C9.17969 12.8807 9.49219 13.1854 9.49219 13.6229V14.576C9.49219 15.0135 9.17969 15.326 8.71875 15.326Z" fill="#0898A0"/>
    <path d="M18.679 20.0647H18.779V19.9647V19.39C19.1552 19.3474 19.4667 19.2177 19.7062 18.9951C19.9693 18.7528 20.1 18.4393 20.1 18.0634C20.1 17.7589 20.0196 17.494 19.8544 17.2745C19.6868 17.0518 19.4167 16.8899 19.0591 16.7803L19.0591 16.7803L19.0579 16.78L18.2238 16.5358L18.2238 16.5358L18.2232 16.5356C18.0099 16.4747 17.8523 16.3891 17.7435 16.2834C17.6442 16.1825 17.5905 16.0446 17.5905 15.8587C17.5905 15.6327 17.6663 15.4603 17.8141 15.331L17.8142 15.3309C17.966 15.1977 18.172 15.1264 18.4427 15.1264C18.7129 15.1264 18.9233 15.1986 19.0829 15.3354L19.0829 15.3354L19.0835 15.3359C19.2414 15.4689 19.3315 15.6532 19.3489 15.8991L19.3555 15.992H19.4487H19.889H19.9948L19.9889 15.8864C19.9685 15.5242 19.8405 15.2193 19.6023 14.9784C19.3859 14.7574 19.1097 14.622 18.779 14.5691V13.9647V13.8647H18.679H18.3282H18.2282V13.9647V14.5648C17.868 14.6047 17.5668 14.7384 17.3309 14.9698C17.0766 15.2192 16.9501 15.534 16.9501 15.9068C16.9501 16.2085 17.0378 16.467 17.218 16.6751C17.3967 16.8815 17.6676 17.036 18.0193 17.1453L18.0192 17.1453L18.0212 17.1459L18.7009 17.3418C18.701 17.3418 18.7011 17.3418 18.7012 17.3419C18.9891 17.4266 19.1809 17.5245 19.2901 17.6289L19.2901 17.6289L19.2915 17.6302C19.3921 17.7226 19.4525 17.8754 19.4525 18.1115C19.4525 18.3222 19.3713 18.4893 19.2045 18.6208C19.036 18.7513 18.8056 18.8216 18.5036 18.8216C18.2074 18.8216 17.9797 18.7494 17.811 18.6144C17.6454 18.4795 17.5589 18.2965 17.5546 18.0542L17.5529 17.956H17.4547H17H16.893L16.9002 18.0628C16.9257 18.4358 17.0654 18.7473 17.3213 18.9904L17.3217 18.9907C17.56 19.2148 17.8642 19.3463 18.2282 19.3896V19.9647V20.0647H18.3282H18.679Z" fill="#0898A0" stroke="#0898A0" stroke-width="0.2"/>
</svg>
